<mxfile host="app.diagrams.net" modified="2022-07-11T08:49:06.273Z" agent="5.0 (Windows NT 10.0; Win64; x64) AppleWebKit/537.36 (KHTML, like Gecko) Chrome/103.0.0.0 Safari/537.36" etag="-o1Yzxr0PsRYtaRVZMiG" version="20.0.1" type="github">
  <diagram id="gGZqO4SjhCmC90gG7sTD" name="Page-1">
    <mxGraphModel dx="1038" dy="579" grid="1" gridSize="10" guides="1" tooltips="1" connect="1" arrows="1" fold="1" page="1" pageScale="1" pageWidth="827" pageHeight="1169" math="0" shadow="0">
      <root>
        <mxCell id="0" />
        <mxCell id="1" parent="0" />
        <mxCell id="agtTJ_08smOtFbx8_Q8--20" value="" style="edgeStyle=orthogonalEdgeStyle;rounded=0;orthogonalLoop=1;jettySize=auto;html=1;" edge="1" parent="1" source="agtTJ_08smOtFbx8_Q8--1" target="agtTJ_08smOtFbx8_Q8--19">
          <mxGeometry relative="1" as="geometry" />
        </mxCell>
        <mxCell id="agtTJ_08smOtFbx8_Q8--1" value="创建API" style="ellipse;whiteSpace=wrap;html=1;aspect=fixed;" vertex="1" parent="1">
          <mxGeometry x="374" y="10" width="80" height="80" as="geometry" />
        </mxCell>
        <mxCell id="agtTJ_08smOtFbx8_Q8--2" value="结束" style="ellipse;whiteSpace=wrap;html=1;aspect=fixed;" vertex="1" parent="1">
          <mxGeometry x="374" y="645" width="80" height="80" as="geometry" />
        </mxCell>
        <mxCell id="agtTJ_08smOtFbx8_Q8--7" value="Y" style="edgeStyle=orthogonalEdgeStyle;rounded=0;orthogonalLoop=1;jettySize=auto;html=1;exitX=0.5;exitY=1;exitDx=0;exitDy=0;" edge="1" parent="1" source="agtTJ_08smOtFbx8_Q8--19" target="agtTJ_08smOtFbx8_Q8--6">
          <mxGeometry relative="1" as="geometry">
            <mxPoint x="430" y="180" as="sourcePoint" />
          </mxGeometry>
        </mxCell>
        <mxCell id="agtTJ_08smOtFbx8_Q8--18" value="&amp;nbsp;N" style="edgeStyle=orthogonalEdgeStyle;rounded=0;orthogonalLoop=1;jettySize=auto;html=1;exitX=1;exitY=0.5;exitDx=0;exitDy=0;" edge="1" parent="1" source="agtTJ_08smOtFbx8_Q8--19" target="agtTJ_08smOtFbx8_Q8--17">
          <mxGeometry relative="1" as="geometry">
            <mxPoint x="474" y="150" as="sourcePoint" />
          </mxGeometry>
        </mxCell>
        <mxCell id="agtTJ_08smOtFbx8_Q8--9" value="" style="edgeStyle=orthogonalEdgeStyle;rounded=0;orthogonalLoop=1;jettySize=auto;html=1;exitX=0.5;exitY=1;exitDx=0;exitDy=0;" edge="1" parent="1" source="agtTJ_08smOtFbx8_Q8--6" target="agtTJ_08smOtFbx8_Q8--8">
          <mxGeometry relative="1" as="geometry">
            <mxPoint x="418" y="350" as="sourcePoint" />
          </mxGeometry>
        </mxCell>
        <mxCell id="agtTJ_08smOtFbx8_Q8--6" value="/主数据平台/&lt;br&gt;确定并收藏数据表" style="whiteSpace=wrap;html=1;rounded=1;" vertex="1" parent="1">
          <mxGeometry x="354" y="240" width="120" height="60" as="geometry" />
        </mxCell>
        <mxCell id="agtTJ_08smOtFbx8_Q8--11" value="" style="edgeStyle=orthogonalEdgeStyle;rounded=0;orthogonalLoop=1;jettySize=auto;html=1;" edge="1" parent="1" source="agtTJ_08smOtFbx8_Q8--8" target="agtTJ_08smOtFbx8_Q8--10">
          <mxGeometry relative="1" as="geometry" />
        </mxCell>
        <mxCell id="agtTJ_08smOtFbx8_Q8--8" value="/主数据平台/&lt;br&gt;创建API并授权" style="whiteSpace=wrap;html=1;rounded=1;" vertex="1" parent="1">
          <mxGeometry x="354" y="330" width="120" height="60" as="geometry" />
        </mxCell>
        <mxCell id="agtTJ_08smOtFbx8_Q8--15" value="" style="edgeStyle=orthogonalEdgeStyle;rounded=0;orthogonalLoop=1;jettySize=auto;html=1;" edge="1" parent="1" source="agtTJ_08smOtFbx8_Q8--10" target="agtTJ_08smOtFbx8_Q8--14">
          <mxGeometry relative="1" as="geometry" />
        </mxCell>
        <mxCell id="agtTJ_08smOtFbx8_Q8--10" value="/主数据平台/&lt;br&gt;将API信息发送至业务系统负责人邮箱" style="whiteSpace=wrap;html=1;rounded=1;" vertex="1" parent="1">
          <mxGeometry x="339" y="420" width="150" height="60" as="geometry" />
        </mxCell>
        <mxCell id="agtTJ_08smOtFbx8_Q8--16" value="" style="edgeStyle=orthogonalEdgeStyle;rounded=0;orthogonalLoop=1;jettySize=auto;html=1;" edge="1" parent="1" source="agtTJ_08smOtFbx8_Q8--14" target="agtTJ_08smOtFbx8_Q8--2">
          <mxGeometry relative="1" as="geometry" />
        </mxCell>
        <mxCell id="agtTJ_08smOtFbx8_Q8--14" value="/开发者平台/&lt;br&gt;业务系统开发者按邮件信息&lt;br&gt;登录平台并参考接口调试文档获取数据" style="whiteSpace=wrap;html=1;rounded=1;" vertex="1" parent="1">
          <mxGeometry x="334" y="520" width="160" height="90" as="geometry" />
        </mxCell>
        <mxCell id="agtTJ_08smOtFbx8_Q8--23" style="edgeStyle=orthogonalEdgeStyle;rounded=0;orthogonalLoop=1;jettySize=auto;html=1;exitX=0.5;exitY=1;exitDx=0;exitDy=0;entryX=0.993;entryY=0.65;entryDx=0;entryDy=0;entryPerimeter=0;" edge="1" parent="1" source="agtTJ_08smOtFbx8_Q8--17" target="agtTJ_08smOtFbx8_Q8--6">
          <mxGeometry relative="1" as="geometry" />
        </mxCell>
        <mxCell id="agtTJ_08smOtFbx8_Q8--17" value="&lt;span style=&quot;color: rgb(0, 0, 0); font-family: Helvetica; font-size: 12px; font-style: normal; font-variant-ligatures: normal; font-variant-caps: normal; font-weight: 400; letter-spacing: normal; orphans: 2; text-align: center; text-indent: 0px; text-transform: none; widows: 2; word-spacing: 0px; -webkit-text-stroke-width: 0px; background-color: rgb(248, 249, 250); text-decoration-thickness: initial; text-decoration-style: initial; text-decoration-color: initial; float: none; display: inline !important;&quot;&gt;/元数据平台/&lt;/span&gt;&lt;br style=&quot;color: rgb(0, 0, 0); font-family: Helvetica; font-size: 12px; font-style: normal; font-variant-ligatures: normal; font-variant-caps: normal; font-weight: 400; letter-spacing: normal; orphans: 2; text-align: center; text-indent: 0px; text-transform: none; widows: 2; word-spacing: 0px; -webkit-text-stroke-width: 0px; background-color: rgb(248, 249, 250); text-decoration-thickness: initial; text-decoration-style: initial; text-decoration-color: initial;&quot;&gt;&lt;span style=&quot;color: rgb(0, 0, 0); font-family: Helvetica; font-size: 12px; font-style: normal; font-variant-ligatures: normal; font-variant-caps: normal; font-weight: 400; letter-spacing: normal; orphans: 2; text-align: center; text-indent: 0px; text-transform: none; widows: 2; word-spacing: 0px; -webkit-text-stroke-width: 0px; background-color: rgb(248, 249, 250); text-decoration-thickness: initial; text-decoration-style: initial; text-decoration-color: initial; float: none; display: inline !important;&quot;&gt;配置数据源&lt;/span&gt;&lt;br style=&quot;color: rgb(0, 0, 0); font-family: Helvetica; font-size: 12px; font-style: normal; font-variant-ligatures: normal; font-variant-caps: normal; font-weight: 400; letter-spacing: normal; orphans: 2; text-align: center; text-indent: 0px; text-transform: none; widows: 2; word-spacing: 0px; -webkit-text-stroke-width: 0px; background-color: rgb(248, 249, 250); text-decoration-thickness: initial; text-decoration-style: initial; text-decoration-color: initial;&quot;&gt;&lt;span style=&quot;color: rgb(0, 0, 0); font-family: Helvetica; font-size: 12px; font-style: normal; font-variant-ligatures: normal; font-variant-caps: normal; font-weight: 400; letter-spacing: normal; orphans: 2; text-align: center; text-indent: 0px; text-transform: none; widows: 2; word-spacing: 0px; -webkit-text-stroke-width: 0px; background-color: rgb(248, 249, 250); text-decoration-thickness: initial; text-decoration-style: initial; text-decoration-color: initial; float: none; display: inline !important;&quot;&gt;配置业务系统&lt;/span&gt;" style="whiteSpace=wrap;html=1;rounded=1;" vertex="1" parent="1">
          <mxGeometry x="570" y="115" width="120" height="60" as="geometry" />
        </mxCell>
        <mxCell id="agtTJ_08smOtFbx8_Q8--19" value="&lt;span style=&quot;&quot;&gt;已经配置数据源?&lt;/span&gt;" style="rhombus;whiteSpace=wrap;html=1;" vertex="1" parent="1">
          <mxGeometry x="329" y="110" width="170" height="70" as="geometry" />
        </mxCell>
      </root>
    </mxGraphModel>
  </diagram>
</mxfile>
